ffmpeg version 2.8.11-0ubuntu0.16.04.1 Copyright (c) 2000-2017 the FFmpeg developers
  built with gcc 5.4.0 (Ubuntu 5.4.0-6ubuntu1~16.04.4) 20160609
  configuration: --prefix=/usr --extra-version=0ubuntu0.16.04.1 --build-suffix=-ffmpeg --toolchain=hardened --libdir=/usr/lib/x86_64-linux-gnu --incdir=/usr/include/x86_64-linux-gnu --cc=cc --cxx=g++ --enable-gpl --enable-shared --disable-stripping --disable-decoder=libopenjpeg --disable-decoder=libschroedinger --enable-avresample --enable-avisynth --enable-gnutls --enable-ladspa --enable-libass --enable-libbluray --enable-libbs2b --enable-libcaca --enable-libcdio --enable-libflite --enable-libfontconfig --enable-libfreetype --enable-libfribidi --enable-libgme --enable-libgsm --enable-libmodplug --enable-libmp3lame --enable-libopenjpeg --enable-libopus --enable-libpulse --enable-librtmp --enable-libschroedinger --enable-libshine --enable-libsnappy --enable-libsoxr --enable-libspeex --enable-libssh --enable-libtheora --enable-libtwolame --enable-libvorbis --enable-libvpx --enable-libwavpack --enable-libwebp --enable-libx265 --enable-libxvid --enable-libzvbi --enable-openal --enable-opengl --enable-x11grab --enable-libdc1394 --enable-libiec61883 --enable-libzmq --enable-frei0r --enable-libx264 --enable-libopencv
  libavutil      54. 31.100 / 54. 31.100
  libavcodec     56. 60.100 / 56. 60.100
  libavformat    56. 40.101 / 56. 40.101
  libavdevice    56.  4.100 / 56.  4.100
  libavfilter     5. 40.101 /  5. 40.101
  libavresample   2.  1.  0 /  2.  1.  0
  libswscale      3.  1.101 /  3.  1.101
  libswresample   1.  2.101 /  1.  2.101
  libpostproc    53.  3.100 / 53.  3.100
[mp3 @ 0x24ea8c0] Unknown attached picture mimetype: ('image/png', None), skipping.
[mp3 @ 0x24ea8c0] Skipping 0 bytes of junk at 17522.
Input #0, mp3, from 'jan-kochanowski-piesni-ksiegi-wtore-piesn-ix-nie-porzucaj-nadzieje.mp3':
  Metadata:
    title           : Jan Kochanowski, Pieśni, Księgi wtóre, Pieśń IX (Nie porzucaj nadzieje...)
    artist          : Krzysztof Skonieczny
    album           : Wolne Lektury
    encoder         : Lavf53.21.0
    genre           : Speech
    originator_reference: nZiCfdG3UZoaaaGk
    date            : 2008-10-30
    performer       : Iwo Vedral
    album_artist    : Fundacja Nowoczesna Polska
    time_reference  : 406488945
    copyright       : 2008 Fundacja Nowoczesna Polska. Licensed to the public under http://creativecommons.org/licenses/by-sa/3.0/deed.pl verify at http://wolnelektury.pl/katalog/lektura/piesni-ksiegi-wtore-piesn-ix/
    creation_time   : 0014-59-58
    encoded_by      : Pro Tools
    publisher       : Fundacja Nowoczesna Polska
  Duration: 00:01:27.88, start: 0.000000, bitrate: 65 kb/s
    Stream #0:0: Audio: mp3, 44100 Hz, mono, s16p, 64 kb/s
Output #0, null, to 'pipe:':
  Metadata:
    title           : Jan Kochanowski, Pieśni, Księgi wtóre, Pieśń IX (Nie porzucaj nadzieje...)
    artist          : Krzysztof Skonieczny
    album           : Wolne Lektury
    publisher       : Fundacja Nowoczesna Polska
    genre           : Speech
    originator_reference: nZiCfdG3UZoaaaGk
    date            : 2008-10-30
    performer       : Iwo Vedral
    album_artist    : Fundacja Nowoczesna Polska
    time_reference  : 406488945
    copyright       : 2008 Fundacja Nowoczesna Polska. Licensed to the public under http://creativecommons.org/licenses/by-sa/3.0/deed.pl verify at http://wolnelektury.pl/katalog/lektura/piesni-ksiegi-wtore-piesn-ix/
    encoded_by      : Pro Tools
    encoder         : Lavf56.40.101
    Stream #0:0: Audio: pcm_s16le, 44100 Hz, mono, s16, 705 kb/s
    Metadata:
      encoder         : Lavc56.60.100 pcm_s16le
Stream mapping:
  Stream #0:0 -> #0:0 (mp3 (native) -> pcm_s16le (native))
Press [q] to stop, [?] for help
[silencedetect @ 0x24fd900] silence_start: -0.00367347
[silencedetect @ 0x24fd900] silence_end: 0.679184 | silence_duration: 0.682857
[silencedetect @ 0x24fd900] silence_start: 1.8249
[silencedetect @ 0x24fd900] silence_end: 2.87347 | silence_duration: 1.04857
[silencedetect @ 0x24fd900] silence_start: 3.41837
[silencedetect @ 0x24fd900] silence_end: 4.41469 | silence_duration: 0.996327
[silencedetect @ 0x24fd900] silence_start: 5.35143
[silencedetect @ 0x24fd900] silence_end: 6.45224 | silence_duration: 1.10082
[silencedetect @ 0x24fd900] silence_start: 7.4151
[silencedetect @ 0x24fd900] silence_end: 9.53469 | silence_duration: 2.11959
[silencedetect @ 0x24fd900] silence_start: 12.9792
[silencedetect @ 0x24fd900] silence_end: 13.6359 | silence_duration: 0.656735
[silencedetect @ 0x24fd900] silence_start: 15.6959
[silencedetect @ 0x24fd900] silence_end: 16.3004 | silence_duration: 0.60449
[silencedetect @ 0x24fd900] silence_start: 18.4649
[silencedetect @ 0x24fd900] silence_end: 19.409 | silence_duration: 0.944082
[silencedetect @ 0x24fd900] silence_start: 20.6592
[silencedetect @ 0x24fd900] silence_end: 21.551 | silence_duration: 0.891837
[silencedetect @ 0x24fd900] silence_start: 26.1188
[silencedetect @ 0x24fd900] silence_end: 26.6449 | silence_duration: 0.526122
[silencedetect @ 0x24fd900] silence_start: 28.731
[silencedetect @ 0x24fd900] silence_end: 29.7535 | silence_duration: 1.02245
[silencedetect @ 0x24fd900] silence_start: 31.1865
[silencedetect @ 0x24fd900] silence_end: 31.8955 | silence_duration: 0.70898
[silencedetect @ 0x24fd900] silence_start: 33.7727
[silencedetect @ 0x24fd900] silence_end: 34.2727 | silence_duration: 0.5
[silencedetect @ 0x24fd900] silence_start: 36.6722
[silencedetect @ 0x24fd900] silence_end: 37.2245 | silence_duration: 0.552245
[silencedetect @ 0x24fd900] silence_start: 39.8853
[silencedetect @ 0x24fd900] silence_end: 40.96 | silence_duration: 1.07469
[silencedetect @ 0x24fd900] silence_start: 42.5237
[silencedetect @ 0x24fd900] silence_end: 43.311 | silence_duration: 0.787347
[silencedetect @ 0x24fd900] silence_start: 45.2143
[silencedetect @ 0x24fd900] silence_end: 46.08 | silence_duration: 0.865714
[silencedetect @ 0x24fd900] silence_start: 51.2486
[silencedetect @ 0x24fd900] silence_end: 52.2188 | silence_duration: 0.970204
[silencedetect @ 0x24fd900] silence_start: 53.7824
[silencedetect @ 0x24fd900] silence_end: 54.3347 | silence_duration: 0.552245
[silencedetect @ 0x24fd900] silence_start: 55.7155
[silencedetect @ 0x24fd900] silence_end: 56.4506 | silence_duration: 0.735102
[silencedetect @ 0x24fd900] silence_start: 61.0706
[silencedetect @ 0x24fd900] silence_end: 62.4849 | silence_duration: 1.41429
[silencedetect @ 0x24fd900] silence_start: 64.1531
[silencedetect @ 0x24fd900] silence_end: 65.2278 | silence_duration: 1.07469
[silencedetect @ 0x24fd900] silence_start: 66.922
[silencedetect @ 0x24fd900] silence_end: 67.7094 | silence_duration: 0.787347
[silencedetect @ 0x24fd900] silence_start: 70.3441
[silencedetect @ 0x24fd900] silence_end: 70.8441 | silence_duration: 0.5
[silencedetect @ 0x24fd900] silence_start: 73.8445
[silencedetect @ 0x24fd900] silence_end: 75.2065 | silence_duration: 1.36204
[silencedetect @ 0x24fd900] silence_start: 78.5204
[silencedetect @ 0x24fd900] silence_end: 79.4645 | silence_duration: 0.944082
[silencedetect @ 0x24fd900] silence_start: 81.8902
[silencedetect @ 0x24fd900] silence_end: 82.8082 | silence_duration: 0.917959
[silencedetect @ 0x24fd900] silence_start: 85.3645
size=N/A time=00:01:27.87 bitrate=N/A    
video:0kB audio:7569kB subtitle:0kB other streams:0kB global headers:0kB muxing overhead: unknown
